<svg id="Layer_1" data-name="Layer 1" xmlns="http://www.w3.org/2000/svg" xmlns:xlink="http://www.w3.org/1999/xlink" viewBox="0 0 1640 1080"><defs><style>.cls-1,.cls-2,.cls-3,.cls-4,.cls-5,.cls-6{stroke:#6ffff0;stroke-miterlimit:10;}.cls-1{fill:url(#linear-gradient);}.cls-2,.cls-4,.cls-6{opacity:0.9;}.cls-2{fill:url(#linear-gradient-2);}.cls-3{opacity:0.85;fill:url(#linear-gradient-3);}.cls-4{fill-opacity:0.8;fill:url(#linear-gradient-4);}.cls-5{fill-opacity:0.85;fill:url(#linear-gradient-5);}.cls-6{fill-opacity:0.9;fill:url(#linear-gradient-6);}</style><linearGradient id="linear-gradient" x1="1351.26" y1="438.04" x2="1351.26" y2="747.46" gradientUnits="userSpaceOnUse"><stop offset="0" stop-color="#6ffff0"/><stop offset="0.15" stop-color="#5cecde"/><stop offset="0.44" stop-color="#2bbab0"/><stop offset="0.62" stop-color="#0a9991"/><stop offset="0.81" stop-color="#057e83"/><stop offset="1" stop-color="#006778"/></linearGradient><linearGradient id="linear-gradient-2" x1="373.85" y1="430.04" x2="373.85" y2="737.28" gradientUnits="userSpaceOnUse"><stop offset="0" stop-color="#6ffff0"/><stop offset="0.14" stop-color="#6bfbec"/><stop offset="0.29" stop-color="#5eeee0"/><stop offset="0.44" stop-color="#49d8cc"/><stop offset="0.6" stop-color="#2bbab0"/><stop offset="0.73" stop-color="#0a9991"/><stop offset="0.97" stop-color="#016d7b"/><stop offset="1" stop-color="#006778"/></linearGradient><linearGradient id="linear-gradient-3" x1="1075.96" y1="431.04" x2="1075.96" y2="738.28" gradientUnits="userSpaceOnUse"><stop offset="0" stop-color="#6ffff0"/><stop offset="0.15" stop-color="#6afaec"/><stop offset="0.32" stop-color="#5deddf"/><stop offset="0.49" stop-color="#47d7ca"/><stop offset="0.67" stop-color="#28b8ae"/><stop offset="0.82" stop-color="#0a9991"/><stop offset="0.84" stop-color="#09938e"/><stop offset="1" stop-color="#006778"/></linearGradient><linearGradient id="linear-gradient-4" x1="553.78" y1="341.57" x2="553.78" y2="738.36" gradientUnits="userSpaceOnUse"><stop offset="0" stop-color="#6ffff0"/><stop offset="0.27" stop-color="#62f2e4"/><stop offset="0.71" stop-color="#44d3c7"/><stop offset="0.76" stop-color="#3fcbc1"/><stop offset="0.83" stop-color="#31b5b1"/><stop offset="0.92" stop-color="#1a9197"/><stop offset="1" stop-color="#006778"/></linearGradient><linearGradient id="linear-gradient-5" x1="192.2" y1="348.33" x2="192.2" y2="738.48" gradientUnits="userSpaceOnUse"><stop offset="0" stop-color="#6ffff0"/><stop offset="0.3" stop-color="#6dfdee"/><stop offset="0.45" stop-color="#65f5e7"/><stop offset="0.56" stop-color="#58e8db"/><stop offset="0.66" stop-color="#46d6ca"/><stop offset="0.75" stop-color="#2ebeb3"/><stop offset="0.82" stop-color="#12a198"/><stop offset="0.84" stop-color="#0a9991"/><stop offset="0.84" stop-color="#0a9991"/><stop offset="0.94" stop-color="#03757f"/><stop offset="1" stop-color="#006778"/></linearGradient><linearGradient id="linear-gradient-6" x1="804.21" y1="341.52" x2="804.21" y2="738.48" gradientUnits="userSpaceOnUse"><stop offset="0" stop-color="#6ffff0"/><stop offset="0.21" stop-color="#6cfced"/><stop offset="0.35" stop-color="#63f3e5"/><stop offset="0.48" stop-color="#53e3d6"/><stop offset="0.6" stop-color="#3dcdc1"/><stop offset="0.72" stop-color="#21b0a7"/><stop offset="0.79" stop-color="#0a9991"/><stop offset="0.82" stop-color="#09928d"/><stop offset="1" stop-color="#006778"/></linearGradient></defs><path class="cls-1" d="M1388.45,438c-36.91,0-68.14,15.34-86.32,40.32v-33.5h-96v293.6h96V567.53l.57,1.7c0-29,22.15-51.11,51.68-51.11s50,22.71,50,55.08V738.46h92V551.62C1496.36,485.18,1451.49,438,1388.45,438Z"/><path class="cls-2" d="M373.85,737.28c88.6,0,163-70.42,163-153.9S462.45,430,373.85,430s-163,69.86-163,153.34S285.26,737.28,373.85,737.28Zm0-80.08c-39.18,0-72.12-34.07-72.12-73.82s32.94-73.26,72.12-73.26S446,543.62,446,583.38,413,657.2,373.85,657.2Z"/><path class="cls-3" d="M1076,738.28c88.59,0,163-70.42,163-153.9S1164.55,431,1076,431,913,500.9,913,584.38,987.37,738.28,1076,738.28Zm0-80.08c-39.18,0-72.12-34.07-72.12-73.82s32.94-73.26,72.12-73.26,72.13,33.5,72.13,73.26S1115.15,658.2,1076,658.2Z"/><path class="cls-4" d="M505.68,738.36h96.78V429.94H720.18V341.57H387.39v88.37H505.68Z"/><path class="cls-5" d="M143.64,738.48h97.12V348.33H143.64Z"/><path class="cls-6" d="M841.4,438.06c-36.91,0-67.57,15.33-85.75,39.75V341.52H659.11v397h96.54V569.25c0-29,22.15-51.11,51.68-51.11s50,22.71,50,55.08V738.48h92V551.64C949.31,485.2,904.44,438.06,841.4,438.06Z"/></svg>